PathFileType	4	(X/Y/Z)	C:/Users/opensim2020/Desktop/walking_exp_matlab/subject01_walking05_straight_03.trc																																																																																																																															
DataRate	CameraRate	NumFrames	NumMarkers	Units	OrigDataRate	OrigDataStartFrame	OrigNumFrames																																																																																																																											
100	100	4	43	mm	100	2190	223																																																																																																																											
Frame#	Time	LFHD			RFHD			LBHD			RBHD			C7			T10			CLAV			STRN			RBAK			LSHO			LUPA			LELB			LFRM			LWRA			LWRB			LFIN			RSHO			RUPA			RELB			RFRM			RWRA			RWRB			RFIN			LASI			RASI			LPSI			RPSI			LTHI			LKNE			LTIB			LANK			LHEE			LTOE			RTHI			RKNE			RTIB			RANK			RHEE			RTOE			*39			*40			*41			*42		
		X1	Y1	Z1	X2	Y2	Z2	X3	Y3	Z3	X4	Y4	Z4	X5	Y5	Z5	X6	Y6	Z6	X7	Y7	Z7	X8	Y8	Z8	X9	Y9	Z9	X10	Y10	Z10	X11	Y11	Z11	X12	Y12	Z12	X13	Y13	Z13	X14	Y14	Z14	X15	Y15	Z15	X16	Y16	Z16	X17	Y17	Z17	X18	Y18	Z18	X19	Y19	Z19	X20	Y20	Z20	X21	Y21	Z21	X22	Y22	Z22	X23	Y23	Z23	X24	Y24	Z24	X25	Y25	Z25	X26	Y26	Z26	X27	Y27	Z27	X28	Y28	Z28	X29	Y29	Z29	X30	Y30	Z30	X31	Y31	Z31	X32	Y32	Z32	X33	Y33	Z33	X34	Y34	Z34	X35	Y35	Z35	X36	Y36	Z36	X37	Y37	Z37	X38	Y38	Z38	X39	Y39	Z39	X40	Y40	Z40	X41	Y41	Z41	X42	Y42	Z42	X43	Y43	Z43
																																																																																																																																		
112	1.11	-167.85751	1677.76062	-1115.59436	-150.83676	1688.6947	-1003.01147	-275.47516	1615.00452	-1101.77124	-260.49911	1624.75439	-982.0777	-291.98004	1433.99805	-1058.09631	-327.2005	1142.5249	-1046.73877	-147.36252	1368.65942	-1057.13684	-104.02248	1212.98657	-1060.94006	-346.55005	1239.96692	-979.38727	-210.95534	1395.79395	-1216.93616	-223.89793	1212.53577	-1304.78906	-208.48883	1060.96118	-1313.54932	-132.61021	973.23529	-1338.06433	-15.23971	899.42267	-1322.64722	-64.35705	872.08081	-1343.01501	5.41895	827.93231	-1356.55847	-214.3719	1399.54114	-907.06854	-285.59589	1204.58264	-805.91644	-291.71481	1081.47424	-800.93774	-278.117	964.13531	-764.14001	-209.52216	838.46881	-774.08221	-254.45526	846.34161	-737.05743	-227.72281	763.25031	-737.08997	-159.52115	930.72803	-1150.65259	-156.90393	941.77075	-934.70844	-344.52075	946.10071	-1093.60193	-339.88281	949.88525	-947.67181	-200.98528	595.96356	-1189.30017	-215.66571	462.87033	-1167.3667	-275.40158	282.16739	-1173.55347	-318.73032	69.85047	-1113.43176	-367.95956	42.42726	-1063.33777	-171.63501	33.50677	-1111.82983	-112.99038	625.27594	-858.52893	-65.11338	472.52896	-879.93463	-148.78189	315.69992	-878.17889	-211.77933	120.71171	-927.17224	-258.48935	89.38779	-985.92078	-90.81718	51.958	-905.57404	-169.28783	1719.33606	-1025.71399	1973.12402	1023.33405	-3101.93579	2012.49536	1021.95038	-3140.67529	NaN	NaN	NaN
113	1.12	-158.65729	1677.45435	-1114.84045	-141.69637	1688.15759	-1002.35962	-266.34946	1614.90259	-1101.09668	-251.42955	1624.50134	-981.39972	-283.19183	1433.75427	-1057.62842	-318.72806	1142.29346	-1046.44971	-138.75867	1368.21057	-1056.44373	-95.543	1212.51147	-1060.91968	-338.08057	1239.61572	-979.30823	-202.32347	1395.72656	-1216.61047	-214.35437	1212.65588	-1304.68604	-197.62927	1061.1322	-1313.83032	-119.84428	975.09033	-1338.41772	-0.91722	903.88013	-1323.29248	-49.43223	875.31812	-1343.33276	21.3532	832.8302	-1357.17249	-205.82457	1398.87329	-906.63068	-278.17819	1204.04199	-805.91254	-284.69443	1081.06372	-801.1142	-272.04117	963.6745	-764.37042	-204.24361	837.55176	-774.21509	-249.08656	845.77631	-737.37744	-223.21234	762.3847	-737.37195	-151.75592	929.80969	-1150.76025	-148.37022	941.36871	-934.7677	-336.48737	946.00037	-1093.09326	-331.3819	949.90076	-947.17249	-195.97061	595.31104	-1189.09497	-212.54077	462.30573	-1167.3269	-273.7937	282.27606	-1173.56226	-318.4465	70.22804	-1113.37598	-367.87314	43.02924	-1063.29321	-171.27919	33.35203	-1111.7666	-104.01584	625.125	-858.85883	-55.23335	472.57516	-880.92639	-130.17596	311.67801	-877.00555	-182.47699	113.09283	-924.93994	-227.83688	79.0078	-982.85291	-57.34685	51.12023	-905.38806	-159.95847	1719.00757	-1024.99658	1973.14807	1023.46277	-3101.95288	2012.51746	1022.04437	-3140.6626	NaN	NaN	NaN
114	1.13	-149.52768	1677.09656	-1114.11145	-132.45746	1687.69556	-1001.53973	-257.34338	1614.79663	-1100.34106	-242.40147	1624.25806	-980.70428	-274.50372	1433.58276	-1057.13879	-310.24585	1142.06519	-1046.00757	-130.05078	1367.70801	-1056.01648	-86.96347	1212.01392	-1060.81763	-329.57809	1239.22461	-979.09375	-193.58028	1395.60596	-1216.11133	-204.76312	1212.71899	-1304.50574	-186.82446	1061.26416	-1314.08423	-107.30844	976.7821	-1338.75256	13.15827	908.13867	-1323.7052	-34.74311	878.48566	-1343.53943	36.97337	837.64099	-1357.68311	-197.03099	1398.33972	-906.1571	-270.21246	1203.66516	-805.82849	-277.59357	1080.65283	-801.2478	-265.71335	963.09851	-764.64532	-198.69795	836.67584	-774.38147	-243.1203	845.0929	-737.58881	-218.29172	761.54407	-737.60645	-144.11438	928.86792	-1150.77063	-139.70976	940.92291	-934.76373	-328.44113	945.86182	-1092.49805	-322.82602	949.85498	-946.58972	-190.99631	594.64044	-1188.76392	-209.36398	461.78986	-1167.25806	-272.20413	282.47571	-1173.59656	-318.18402	70.56272	-1113.30933	-367.73364	43.53972	-1063.25171	-171.21317	33.26658	-1111.71362	-95.34564	624.81201	-859.01898	-46.04852	472.23273	-881.87207	-111.71114	307.95917	-875.80511	-152.93546	106.35163	-922.58997	-198.28439	70.33456	-979.55695	-24.18982	51.00941	-905.73407	-150.70079	1718.61353	-1024.08936	1973.18079	1023.33478	-3101.92236	2012.49609	1021.96356	-3140.7688	NaN	NaN	NaN
115	1.14	-140.35861	1676.63501	-1113.22388	-123.19749	1687.17139	-1000.68188	-248.27946	1614.55627	-1099.58813	-233.31171	1623.90771	-979.87469	-265.58963	1433.12549	-1056.59192	-301.66739	1141.71143	-1045.40283	-121.30097	1367.19141	-1055.59558	-78.35948	1211.40466	-1060.67493	-320.98584	1238.82874	-978.70337	-184.87282	1395.3916	-1215.54797	-195.22481	1212.74341	-1304.23657	-175.99527	1061.40906	-1314.276	-94.80722	978.43512	-1338.92932	26.94927	912.26917	-1323.85071	-20.33087	881.60748	-1343.65845	52.04553	842.08014	-1357.65686	-188.30209	1397.69812	-905.6264	-262.38315	1203.13342	-805.68671	-270.42892	1080.15662	-801.27197	-259.21832	962.57953	-764.79126	-192.95334	835.7442	-774.4881	-237.53281	844.2583	-737.94305	-212.99628	760.69434	-737.80261	-136.36403	927.94427	-1150.71545	-130.80074	940.42352	-934.61725	-320.285	945.71564	-1091.72217	-314.21274	949.7934	-945.92944	-186.00198	594.18927	-1188.57996	-205.97911	461.4996	-1167.2522	-270.52988	282.76682	-1173.60205	-317.90762	70.95062	-1113.34058	-367.59384	44.20187	-1063.3064	-171.0556	33.13707	-1111.76428	-87.61744	623.71735	-859.44775	-37.2005	471.92212	-882.76575	-94.14804	305.07431	-874.55133	-123.29412	100.46668	-920.09753	-167.4998	62.22576	-976.48065	8.80947	52.20422	-905.73889	-141.52071	1717.91101	-1023.33698	1973.20752	1023.23651	-3101.92554	2012.57617	1021.98737	-3140.63208	NaN	NaN	NaN
